<?xml version="1.0" standalone="no"?>
<!DOCTYPE svg PUBLIC "-//W3C//DTD SVG 20010904//EN"
 "http://www.w3.org/TR/2001/REC-SVG-20010904/DTD/svg10.dtd">
<svg version="1.0" xmlns="http://www.w3.org/2000/svg"
 width="700.000000pt" height="700.000000pt" viewBox="0 0 700.000000 700.000000"
 preserveAspectRatio="xMidYMid meet">
<metadata>
Created by potrace 1.11, written by Peter Selinger 2001-2013
</metadata>
<g transform="translate(0.000000,700.000000) scale(0.100000,-0.100000)"
fill="#000000" stroke="none">
<path d="M0 3500 l0 -3500 3500 0 3500 0 0 3500 0 3500 -3500 0 -3500 0 0
-3500z m2610 1816 c-157 -58 -326 -197 -438 -359 -68 -99 -143 -250 -183 -373
l-34 -102 -295 -115 c-162 -64 -296 -114 -298 -112 -10 9 85 264 138 370 126
254 347 487 571 600 142 72 280 103 459 103 106 1 112 0 80 -12z m1115 -1080
c49 -21 55 -55 55 -308 0 -176 3 -219 14 -231 12 -12 64 -15 260 -19 274 -4
276 -5 296 -77 14 -50 13 -387 -1 -414 -6 -12 -21 -32 -32 -44 -19 -22 -28
-23 -151 -23 -72 0 -188 -3 -258 -7 l-128 -6 0 -248 c0 -248 0 -248 -24 -276
l-24 -28 -224 0 c-193 0 -227 2 -250 17 l-25 17 -5 255 c-2 141 -6 258 -9 260
-3 3 -115 9 -251 14 -276 9 -289 13 -307 79 -14 50 -14 357 0 406 17 63 44 69
320 75 l236 5 7 75 c3 41 6 145 6 231 0 187 9 227 53 246 46 20 394 21 442 1z"/>
</g>
</svg>
