<?xml version="1.0" encoding="UTF-8"?>
<svg width="125mm" height="110mm" version="1.1" viewBox="0 0 125 110" xmlns="http://www.w3.org/2000/svg" xmlns:cc="http://creativecommons.org/ns#" xmlns:dc="http://purl.org/dc/elements/1.1/" xmlns:rdf="http://www.w3.org/1999/02/22-rdf-syntax-ns#" xmlns:xlink="http://www.w3.org/1999/xlink">
<defs>
<linearGradient id="a" x1="2623.1" x2="2764.3" y1="1342.9" y2="1703.2" gradientTransform="translate(195.52 -11.113)" gradientUnits="userSpaceOnUse">
<stop stop-color="#7ac5eb" offset="0"/>
<stop stop-color="#5f92e5" offset=".5"/>
<stop stop-color="#6890e2" offset="1"/>
</linearGradient>
</defs>
<metadata>
<rdf:RDF>
<cc:Work rdf:about="">
<dc:format>image/svg+xml</dc:format>
<dc:type rdf:resource="http://purl.org/dc/dcmitype/StillImage"/>
<dc:title/>
</cc:Work>
</rdf:RDF>
</metadata>
<g transform="translate(0,-187)">
<g transform="matrix(.26413 0 0 .26389 -738.87 -163.34)">
<rect x="2916.5" y="1431.3" width="234.14" height="217.91" ry="25" fill="#fff"/>
<path d="m3007.3 1731.7c-86.107-45.801-139.28-87.532-174.94-137.29-23.138-32.291-33.202-60.969-34.586-98.557-0.9125-24.79 1.356-41.221 8.7405-63.307 9.266-27.714 20.318-46.629 38.093-65.19 24.737-25.834 49.061-37.107 82.512-38.242 16.329-0.554 17.732-0.3886 29.153 3.4378 25.521 8.5505 49.216 27.273 69.081 54.585 3.7535 5.1606 7.2904 9.3829 7.8598 9.3829s5.3475-5.6624 10.618-12.583c20.758-27.257 43.882-44.544 70.799-52.93 14.333-4.4655 38.99-4.4711 53.276-0.012 50.826 15.864 89.494 64.779 100.12 126.66 7.7643 45.194-1.7209 90.123-27.065 128.2-27.903 41.922-72.581 82.091-131.75 118.45-24.227 14.889-71.695 40.223-75.297 40.187-1.4412-0.014-13.42-5.7704-26.62-12.792zm51.793-105.93s2.5025-2.0398 3.0448-3.3495c0.5423-1.3096 0.8017-26.984 0.8017-26.984l0.3601-27.591 27.785-0.6666 27.785-0.6667 3.2149-3.741c3.1079-3.6166 3.2148-4.4509 3.2148-25.088 0-21.48-0.6966-25.324-5.2177-28.796-1.4972-1.1495-9.9654-1.6366-28.973-1.6666-23.235-0.037-26.966-0.3269-27.667-2.1515-0.4451-1.1599-0.8093-13.571-0.8093-27.581 0-33.949 2.1372-31.644-29.333-31.644-31.487 0-29.161-2.6203-29.638 33.389l-0.3618 27.278-27.633 0.6667c-36.29 0.8755-33.7-1.4296-33.7 29.998 0 31.431-2.5886 29.127 33.7 30.002l27.633 0.6666 0.3601 27.591s-0.4033 26.141 0.3602 27.591 1.7093 2.2242 3.4473 3.0936 5.339 2.3911 25.832 2.3911c20.493 0 22.59-0.223 25.793-2.7423z" fill="#2b6ddd" stroke-width="1.3333"/>
<path d="m2936.8 1328.9c-2.6062 0-5.7556 0.096-9.8379 0.2344-33.451 1.1349-57.774 12.409-82.512 38.242-17.774 18.562-28.828 37.476-38.094 65.19-7.3845 22.086-9.6528 38.516-8.7403 63.307 1.3834 37.588 11.448 66.266 34.586 98.557 35.657 49.761 88.83 91.492 174.94 137.29 10.124 5.3851 19.483 10 23.967 11.877l2.9316 0.6933c-136.28-78.684-190.44-231.37-166.89-321.39 21.854-83.538 77.482-93.486 77.482-93.486l-0.012-0.029c-2.2716-0.3513-4.6412-0.4857-7.8223-0.4825z" fill="url(#a)" stroke-width="1.3333"/>
</g>
</g>
</svg>
