<?xml version="1.0" encoding="UTF-8"?>
<svg width="48mm" height="48mm" version="1.1" viewBox="0 0 48 48" xmlns="http://www.w3.org/2000/svg" xmlns:cc="http://creativecommons.org/ns#" xmlns:dc="http://purl.org/dc/elements/1.1/" xmlns:rdf="http://www.w3.org/1999/02/22-rdf-syntax-ns#">
<metadata>
<rdf:RDF>
<cc:Work rdf:about="">
<dc:format>image/svg+xml</dc:format>
<dc:type rdf:resource="http://purl.org/dc/dcmitype/StillImage"/>
<dc:title/>
</cc:Work>
</rdf:RDF>
</metadata>
<g transform="translate(0,-249)">
<path d="m21.223 249c-5.4066-2e-3 -4.954 0.50525-5.0634 8.7828l-0.09474 7.1659-7.2333 0.17544c-9.4993 0.23-8.8214-0.37586-8.8214 7.8805 0 8.2574-0.67765 7.652 8.8214 7.882l7.2333 0.17543 0.09423 7.2482s-0.10562 6.8678 0.09423 7.2487c0.19986 0.3809 0.44743 0.58444 0.90237 0.81285 0.45494 0.22839 1.3978 0.62815 6.7621 0.62815 5.3643 0 5.913-0.0589 6.7514-0.72076 0 0 0.65543-0.53565 0.79738-0.87973 0.14196-0.34403 0.20946-7.0892 0.20946-7.0892l0.09423-7.2482 7.2732-0.17543 7.2732-0.17492 0.84143-0.98261c0.81353-0.95014 0.84142-1.1697 0.84142-6.5912 0-5.643-0.1824-6.6526-1.3658-7.5646-0.39191-0.30198-2.6082-0.42992-7.5836-0.4378-6.082-0.01-7.0592-0.0861-7.2425-0.56539-0.11651-0.30472-0.21151-3.5652-0.21151-7.2456 0-8.9188 0.55942-8.3131-7.6783-8.3131-1.0302 0-1.9224-0.0109-2.6948-0.0113z" fill="#f7a033"/>
</g>
</svg>
