<?xml version="1.0" encoding="UTF-8"?>
<svg width="48mm" height="48mm" version="1.1" viewBox="0 0 48 48" xmlns="http://www.w3.org/2000/svg" xmlns:cc="http://creativecommons.org/ns#" xmlns:dc="http://purl.org/dc/elements/1.1/" xmlns:rdf="http://www.w3.org/1999/02/22-rdf-syntax-ns#">
<metadata>
<rdf:RDF>
<cc:Work rdf:about="">
<dc:format>image/svg+xml</dc:format>
<dc:type rdf:resource="http://purl.org/dc/dcmitype/StillImage"/>
<dc:title/>
</cc:Work>
</rdf:RDF>
</metadata>
<g transform="translate(0,-249)">
<circle cx="24" cy="273" r="24" fill="#38c2cf"/>
<path d="m22.623 261.1c-2.6819-9.9e-4 -2.4573 0.25062-2.5116 4.3566l-0.04699 3.5545-3.5879 0.087c-4.7119 0.11409-4.3757-0.18644-4.3757 3.909 0 4.0959-0.33613 3.7956 4.3757 3.9097l3.5879 0.087 0.04674 3.5953s-0.05239 3.4066 0.04674 3.5956c0.09914 0.18894 0.22194 0.2899 0.4476 0.4032 0.22566 0.11329 0.69333 0.31158 3.3542 0.31158 2.6609 0 2.933-0.0292 3.3489-0.35752 0 0 0.32511-0.2657 0.39553-0.43637 0.07041-0.17065 0.1039-3.5165 0.1039-3.5165l0.04674-3.5953 3.6078-0.087 3.6078-0.0868 0.41737-0.48741c0.40354-0.4713 0.41737-0.58021 0.41737-3.2695 0-2.7991-0.09047-3.2999-0.6775-3.7523-0.1944-0.14979-1.2937-0.21325-3.7617-0.21716-3.0169-5e-3 -3.5016-0.0427-3.5925-0.28045-0.05779-0.15115-0.10492-1.7685-0.10492-3.5941 0-4.424 0.27749-4.1236-3.8087-4.1236-0.51103 0-0.95359-5e-3 -1.3367-6e-3z" fill="#fff"/>
</g>
</svg>
